<?xml version="1.0" encoding="UTF-8"?>
<svg id="Warstwa_1" data-name="Warstwa 1" xmlns="http://www.w3.org/2000/svg" viewBox="0 0 384 512">
  <path d="M64,0C28.7,0,0,28.7,0,64V448c0,35.3,28.7,64,64,64H320c35.3,0,64-28.7,64-64V160h-128c-17.7,0-32-14.3-32-32V0H64Zm192,0V128h128L256,0ZM64,224h24c30.9,0,56,25.1,56,56s-25.1,56-56,56h-8v32c0,8.8-7.2,16-16,16s-16-7.2-16-16V240c0-8.8,7.2-16,16-16Zm24,80c13.3,0,24-10.7,24-24s-10.7-24-24-24h-8v48h8Zm72-64c0-8.8,7.2-16,16-16h24c26.5,0,48,21.5,48,48v64c0,26.5-21.5,48-48,48h-24c-8.8,0-16-7.2-16-16V240Zm32,112h8c8.8,0,16-7.2,16-16v-64c0-8.8-7.2-16-16-16h-8v96Zm96-128h48c8.8,0,16,7.2,16,16s-7.2,16-16,16h-32v32h32c8.8,0,16,7.2,16,16s-7.2,16-16,16h-32v48c0,8.8-7.2,16-16,16s-16-7.2-16-16V240c0-8.8,7.2-16,16-16Z"/>
</svg>