<?xml version="1.0" encoding="utf-8"?>
<!-- Generator: Adobe Illustrator 26.5.0, SVG Export Plug-In . SVG Version: 6.00 Build 0)  -->
<svg version="1.1" id="Warstwa_1" xmlns="http://www.w3.org/2000/svg" xmlns:xlink="http://www.w3.org/1999/xlink" x="0px" y="0px"
	 viewBox="0 0 512 512" style="enable-background:new 0 0 512 512;" xml:space="preserve">
<path d="M128,0C92.7,0,64,28.7,64,64v96h64V64h226.7L384,93.3V160h64V93.3c0-17-6.7-33.3-18.7-45.3L400,18.7
	C388,6.7,371.7,0,354.7,0H128z M384,352v32v64H128v-64v-16v-16H384z M448,384h32c17.7,0,32-14.3,32-32v-96c0-35.3-28.7-64-64-64H64
	c-35.3,0-64,28.7-64,64v96c0,17.7,14.3,32,32,32h32v64c0,35.3,28.7,64,64,64h256c35.3,0,64-28.7,64-64V384z M432,296
	c-13.3,0-24-10.7-24-24s10.7-24,24-24s24,10.7,24,24S445.3,296,432,296z"/>
</svg>
