<?xml version="1.0" encoding="utf-8"?>
<!-- Generator: Adobe Illustrator 26.3.1, SVG Export Plug-In . SVG Version: 6.00 Build 0)  -->
<svg version="1.1" id="Warstwa_2" xmlns="http://www.w3.org/2000/svg" xmlns:xlink="http://www.w3.org/1999/xlink" x="0px" y="0px"
	 viewBox="0 0 100 100" style="enable-background:new 0 0 100 100;" xml:space="preserve">
<style type="text/css">
	.st0{display:none;}
	.st1{display:inline;fill:none;stroke:#B9BCBE;stroke-width:7.2;stroke-linecap:round;stroke-linejoin:round;stroke-miterlimit:10;}
	.st2{display:none;fill:none;stroke:#B9BCBE;stroke-width:7.2;stroke-linecap:round;stroke-linejoin:round;stroke-miterlimit:10;}
	.st3{display:none;fill:none;stroke:#B9BCBE;stroke-width:8.1;stroke-linecap:round;stroke-linejoin:round;stroke-miterlimit:10;}
	.st4{fill:none;stroke:#B9BCBE;stroke-width:7.2;stroke-linecap:round;stroke-linejoin:round;stroke-miterlimit:10;}
</style>
<g class="st0">
	<circle class="st1" cx="57.35" cy="42.68" r="32.4"/>
	<line class="st1" x1="10.55" y1="89.48" x2="34.46" y2="65.57"/>
</g>
<g class="st0">
	<circle class="st1" cx="28.43" cy="81.93" r="7.2"/>
	<circle class="st1" cx="78.83" cy="81.93" r="7.2"/>
	<polyline class="st1" points="78.83,74.73 28.43,74.73 21.24,9.93 10.44,9.93 	"/>
	<polyline class="st1" points="22.83,24.33 89.63,31.53 86.43,60.33 26.83,60.33 	"/>
</g>
<g class="st0">
	<rect x="14.55" y="13.88" class="st1" width="28.8" height="28.8"/>
	<rect x="57.75" y="13.88" class="st1" width="28.8" height="28.8"/>
	<rect x="14.55" y="57.08" class="st1" width="28.8" height="28.8"/>
	<rect x="57.75" y="57.08" class="st1" width="28.8" height="28.8"/>
</g>
<g class="st0">
	<polyline class="st1" points="39.15,86.48 39.15,57.68 60.75,57.68 60.75,86.48 	"/>
	<polygon class="st1" points="17.55,50.48 17.55,86.48 82.35,86.48 82.35,50.48 89.55,50.48 49.95,14.48 10.35,50.48 	"/>
</g>
<path class="st2" d="M39.98,78.95L21.21,60.18c-13.83-13.83-13.83-36.22,0-50.05L39.98,28.9l-6.26,6.26
	c-3.46,3.46-3.46,9.06,0,12.51l18.77,18.77c3.46,3.46,9.06,3.46,12.51,0l6.26-6.26l18.77,18.77C76.2,92.79,53.81,92.79,39.98,78.95z
	"/>
<path class="st3" d="M94.68,34.33c0-12.3-9.97-22.27-22.28-22.27c-9.44,0-19.03,5.88-22.27,14.17c-3.24-8.3-12.83-14.17-22.27-14.17
	c-12.3,0-22.27,9.97-22.27,22.27c0,19.74,24.05,39.74,44.55,52.65C70.63,74.07,94.68,54.07,94.68,34.33z"/>
<line class="st4" x1="10.88" y1="89.47" x2="90.08" y2="10.27"/>
<line class="st4" x1="10.88" y1="10.27" x2="90.08" y2="89.47"/>
</svg>
